HIERARCHY
ROOT Hips
{
    OFFSET   0.000000   0.000000   0.000000
    CHANNELS 6 Xposition Yposition Zposition Zrotation Xrotation Yrotation
    JOINT Chest
    {
        OFFSET   0.000000   8.007230   0.000000
        CHANNELS 3 Zrotation Xrotation Yrotation
        JOINT Chest2
        {
            OFFSET   0.000000  22.077100   0.000000
            CHANNELS 3 Zrotation Xrotation Yrotation
            JOINT Neck
            {
                OFFSET   0.000000  23.254800   0.000000
                CHANNELS 3 Zrotation Xrotation Yrotation
                JOINT Head
                {
                    OFFSET   0.000010  14.370000   1.956600
                    CHANNELS 3 Zrotation Xrotation Yrotation
                    End Site
                    {
                        OFFSET   0.000000  19.566000   0.000000
                    }
                }
            }
            JOINT LeftCollar
            {
                OFFSET   3.911900  19.017000  -0.467062
                CHANNELS 3 Zrotation Xrotation Yrotation
                JOINT LeftShoulder
                {
                    OFFSET  10.383700   0.000000   0.000000
                    CHANNELS 3 Zrotation Xrotation Yrotation
                    JOINT LeftElbow
                    {
                        OFFSET  26.662100   0.001193   0.000835
                        CHANNELS 3 Zrotation Xrotation Yrotation
                        JOINT LeftWrist
                        {
                            OFFSET  28.869000  -0.000058  -0.000075
                            CHANNELS 3 Zrotation Xrotation Yrotation
                            JOINT LeftFinger0
                            {
                                OFFSET   2.044660  -2.323460   3.252850
                                CHANNELS 3 Zrotation Xrotation Yrotation
                                JOINT LeftFinger01
                                {
                                    OFFSET   3.088130   0.000000   0.000000
                                    CHANNELS 3 Zrotation Xrotation Yrotation
                                    JOINT LeftFinger02
                                    {
                                        OFFSET   2.639450   0.000000   0.000000
                                        CHANNELS 3 Zrotation Xrotation Yrotation
                                        End Site
                                        {
                                            OFFSET   2.582190   0.000000   0.000000
                                        }
                                    }
                                }
                            }
                            JOINT LeftFinger1
                            {
                                OFFSET   8.364480   0.000000   3.252850
                                CHANNELS 3 Zrotation Xrotation Yrotation
                                JOINT LeftFinger11
                                {
                                    OFFSET   4.646920   0.000000   0.000000
                                    CHANNELS 3 Zrotation Xrotation Yrotation
                                    JOINT LeftFinger12
                                    {
                                        OFFSET   2.323460   0.000000   0.000000
                                        CHANNELS 3 Zrotation Xrotation Yrotation
                                        End Site
                                        {
                                            OFFSET   2.273050   0.000000   0.000000
                                        }
                                    }
                                }
                            }
                            JOINT LeftFinger2
                            {
                                OFFSET   8.364490   0.000016   1.078090
                                CHANNELS 3 Zrotation Xrotation Yrotation
                                JOINT LeftFinger21
                                {
                                    OFFSET   5.111620   0.000000   0.000000
                                    CHANNELS 3 Zrotation Xrotation Yrotation
                                    JOINT LeftFinger22
                                    {
                                        OFFSET   2.788150   0.000012   0.000000
                                        CHANNELS 3 Zrotation Xrotation Yrotation
                                        End Site
                                        {
                                            OFFSET   2.727660   0.000000   0.000000
                                        }
                                    }
                                }
                            }
                            JOINT LeftFinger3
                            {
                                OFFSET   7.899780   0.000014  -1.078090
                                CHANNELS 3 Zrotation Xrotation Yrotation
                                JOINT LeftFinger31
                                {
                                    OFFSET   4.646930   0.000000   0.000000
                                    CHANNELS 3 Zrotation Xrotation Yrotation
                                    JOINT LeftFinger32
                                    {
                                        OFFSET   2.323470   0.000000   0.000000
                                        CHANNELS 3 Zrotation Xrotation Yrotation
                                        End Site
                                        {
                                            OFFSET   2.273050   0.000000   0.000000
                                        }
                                    }
                                }
                            }
                            JOINT LeftFinger4
                            {
                                OFFSET   7.435090   0.000000  -3.252850
                                CHANNELS 3 Zrotation Xrotation Yrotation
                                JOINT LeftFinger41
                                {
                                    OFFSET   3.717550   0.000000   0.000000
                                    CHANNELS 3 Zrotation Xrotation Yrotation
                                    JOINT LeftFinger42
                                    {
                                        OFFSET   1.858770   0.000000   0.000000
                                        CHANNELS 3 Zrotation Xrotation Yrotation
                                        End Site
                                        {
                                            OFFSET   1.818440   0.000000   0.000000
                                        }
                                    }
                                }
                            }
                        }
                    }
                }
            }
            JOINT RightCollar
            {
                OFFSET  -3.911900  19.017000  -0.467063
                CHANNELS 3 Zrotation Xrotation Yrotation
                JOINT RightShoulder
                {
                    OFFSET -10.383700   0.000023   0.000000
                    CHANNELS 3 Zrotation Xrotation Yrotation
                    JOINT RightElbow
                    {
                        OFFSET -26.662100   0.001246   0.001011
                        CHANNELS 3 Zrotation Xrotation Yrotation
                        JOINT RightWrist
                        {
                            OFFSET -28.869000  -0.000026  -0.000078
                            CHANNELS 3 Zrotation Xrotation Yrotation
                            JOINT RightFinger0
                            {
                                OFFSET  -2.044660  -2.323490   3.252850
                                CHANNELS 3 Zrotation Xrotation Yrotation
                                JOINT RightFinger01
                                {
                                    OFFSET  -3.088130   0.000000   0.000000
                                    CHANNELS 3 Zrotation Xrotation Yrotation
                                    JOINT RightFinger02
                                    {
                                        OFFSET  -2.639460   0.000000   0.000000
                                        CHANNELS 3 Zrotation Xrotation Yrotation
                                        End Site
                                        {
                                            OFFSET  -2.582190   0.000000   0.000000
                                        }
                                    }
                                }
                            }
                            JOINT RightFinger1
                            {
                                OFFSET  -8.364480   0.000000   3.252850
                                CHANNELS 3 Zrotation Xrotation Yrotation
                                JOINT RightFinger11
                                {
                                    OFFSET  -4.646920   0.000000   0.000000
                                    CHANNELS 3 Zrotation Xrotation Yrotation
                                    JOINT RightFinger12
                                    {
                                        OFFSET  -2.323470   0.000000   0.000000
                                        CHANNELS 3 Zrotation Xrotation Yrotation
                                        End Site
                                        {
                                            OFFSET  -2.273050   0.000000   0.000000
                                        }
                                    }
                                }
                            }
                            JOINT RightFinger2
                            {
                                OFFSET  -8.364480   0.000000   1.078090
                                CHANNELS 3 Zrotation Xrotation Yrotation
                                JOINT RightFinger21
                                {
                                    OFFSET  -5.111620   0.000000   0.000000
                                    CHANNELS 3 Zrotation Xrotation Yrotation
                                    JOINT RightFinger22
                                    {
                                        OFFSET  -2.788160   0.000000   0.000000
                                        CHANNELS 3 Zrotation Xrotation Yrotation
                                        End Site
                                        {
                                            OFFSET  -2.727660   0.000000   0.000000
                                        }
                                    }
                                }
                            }
                            JOINT RightFinger3
                            {
                                OFFSET  -7.899780   0.000000  -1.078090
                                CHANNELS 3 Zrotation Xrotation Yrotation
                                JOINT RightFinger31
                                {
                                    OFFSET  -4.646930   0.000000   0.000000
                                    CHANNELS 3 Zrotation Xrotation Yrotation
                                    JOINT RightFinger32
                                    {
                                        OFFSET  -2.323470   0.000000   0.000000
                                        CHANNELS 3 Zrotation Xrotation Yrotation
                                        End Site
                                        {
                                            OFFSET  -2.273050   0.000000   0.000000
                                        }
                                    }
                                }
                            }
                            JOINT RightFinger4
                            {
                                OFFSET  -7.435090   0.000000  -3.252850
                                CHANNELS 3 Zrotation Xrotation Yrotation
                                JOINT RightFinger41
                                {
                                    OFFSET  -3.717550   0.000000   0.000000
                                    CHANNELS 3 Zrotation Xrotation Yrotation
                                    JOINT RightFinger42
                                    {
                                        OFFSET  -1.858760   0.000000   0.000000
                                        CHANNELS 3 Zrotation Xrotation Yrotation
                                        End Site
                                        {
                                            OFFSET  -1.818440   0.000000   0.000000
                                        }
                                    }
                                }
                            }
                        }
                    }
                }
            }
        }
    }
    JOINT LeftHip
    {
        OFFSET   9.783010   0.000000   0.000000
        CHANNELS 3 Zrotation Xrotation Yrotation
        JOINT LeftKnee
        {
            OFFSET   0.000073 -41.789100   0.001749
            CHANNELS 3 Zrotation Xrotation Yrotation
            JOINT LeftAnkle
            {
                OFFSET   0.000111 -41.133200  -0.000179
                CHANNELS 3 Zrotation Xrotation Yrotation
                JOINT LeftToe
                {
                    OFFSET   0.000000  -6.358960  14.674500
                    CHANNELS 3 Zrotation Xrotation Yrotation
                    End Site
                    {
                        OFFSET   0.000000   0.000000   3.913200
                    }
                }
            }
        }
    }
    JOINT RightHip
    {
        OFFSET  -9.783010   0.000000   0.000000
        CHANNELS 3 Zrotation Xrotation Yrotation
        JOINT RightKnee
        {
            OFFSET   0.000424 -41.789200   0.005205
            CHANNELS 3 Zrotation Xrotation Yrotation
            JOINT RightAnkle
            {
                OFFSET   0.000000 -41.133200  -0.000155
                CHANNELS 3 Zrotation Xrotation Yrotation
                JOINT RightToe
                {
                    OFFSET   0.000000  -6.358960  14.674500
                    CHANNELS 3 Zrotation Xrotation Yrotation
                    End Site
                    {
                        OFFSET   0.000000   0.000000   3.913200
                    }
                }
            }
        }
    }
}
MOTION
Frames: 5
Frame Time:   0.016667
 -0.154347  89.582200  -1.251570  -2.017000  -6.571020  -1.055440   0.646070   2.470250  -0.011817   1.294460   4.940170  -0.051621   0.195375   0.819882   0.004607   0.319090   1.662080  -1.218250  -0.625188   0.221824   1.496900 -79.582400  13.016200   1.896950  -0.886444  -3.701570 -14.404300  12.235100  -3.805870  -0.580533  37.429500  33.311700 -62.884300 -34.968200   0.000000   0.000145 -12.484000  -0.007752  -0.002078 -32.496200   5.527260  -8.598720 -26.928000  -0.002593  -0.004804 -18.849600   0.003278  -0.004095 -28.588000  -1.893670   3.470730 -38.008400  -0.002625  -0.004157 -25.313600  -0.004474  -0.001954 -28.506400  -1.888460   3.473570 -36.801900  -0.004716  -0.005244 -24.510100  -0.008683  -0.004381 -33.573400  -2.188530   3.292900 -50.454500  -0.011564  -0.004103 -33.602700   0.002892  -0.004095   3.783610  -0.420192   1.433590  74.763300   3.029630  -7.379990   0.340082  -5.583510   8.139710 -12.448600  -3.716310   2.774210 -36.649700  29.713200  61.037200  32.995700  -0.001497  -0.005223  11.497900   0.001819   0.001520  35.063600   9.225400  12.856400  29.539700   0.004706   0.002445  20.676800   0.001404  -0.008234  32.139000   3.268780   5.183390  48.430600  -0.000934   0.001663  32.254800   0.002347   0.005376  30.982900   3.161550   5.248970  46.690500  -0.000615   0.010852  31.095900   0.001161   0.005539  40.618500  -1.258760  -1.467000  60.952000   0.007420   0.005046  40.594000   0.003878   0.006095   2.259390   8.638750   2.560000   1.438510  -0.002373   3.339450  -1.701770  -2.638190   0.811124  -0.000000   0.000000   0.000000   2.581820   7.038290  -1.001580   0.035337   1.963610  -5.342130  -0.687320  -3.595750  -1.052510  -0.000000   0.000000  -0.000000
 -0.154317  89.582200  -1.251500  -2.021870  -6.592090  -1.055110   0.645920   2.487240  -0.012079   1.294160   4.974170  -0.052319   0.195371   0.808826   0.004599   0.319294   1.639690  -1.210890  -0.625519   0.234264   1.497140 -79.573000  13.026500   1.878130  -0.893209  -3.701330 -14.418800  12.259200  -3.817580  -0.590800  37.415000  33.281500 -62.843900 -34.971100   0.000000   0.000146 -12.485500  -0.007751  -0.002066 -32.510100   5.523290  -8.588530 -26.938900  -0.002585  -0.004796 -18.857300   0.003282  -0.004091 -28.587600  -1.897640   3.477900 -38.021600  -0.002624  -0.004155 -25.322400  -0.004477  -0.001952 -28.505900  -1.892440   3.480730 -36.818100  -0.004712  -0.005239 -24.520900  -0.008684  -0.004376 -33.582500  -2.193550   3.299400 -50.468300  -0.011561  -0.004101 -33.611900   0.002887  -0.004088   3.778560  -0.420585   1.439530  74.763700   3.029610  -7.389840   0.351413  -5.572110   8.130600 -12.473400  -3.725220   2.762810 -36.630300  29.694200  61.027600  33.008600  -0.001497  -0.005223  11.504300   0.001817   0.001514  35.066900   9.225430  12.855600  29.542700   0.004708   0.002448  20.679300   0.001403  -0.008234  32.143400   3.268780   5.183390  48.437200  -0.000934   0.001663  32.259100   0.002346   0.005374  30.983100   3.161060   5.248970  46.690800  -0.000617   0.010852  31.096100   0.001161   0.005537  40.622700  -1.258790  -1.467030  60.958200   0.007416   0.005046  40.598100   0.003874   0.006096   2.264490   8.656360   2.561640   1.438740  -0.001905   3.339550  -1.702020  -2.638230   0.805327   0.000000   0.000000  -0.000000   2.590240   7.057590  -1.001690   0.030510   1.962950  -5.348260  -0.687046  -3.597690  -1.051480  -0.000000   0.000000  -0.000000
 -0.154272  89.582100  -1.251430  -2.029940  -6.625550  -1.052510   0.645836   2.514860  -0.013770   1.294150   5.029400  -0.056027   0.195340   0.789787   0.004579   0.318985   1.601180  -1.197080  -0.625883   0.246704   1.497470 -79.557700  13.047800   1.847670  -0.901377  -3.700930 -14.442500  12.296800  -3.835840  -0.606850  37.399800  33.252600 -62.802000 -34.977800   0.000000   0.000147 -12.488900  -0.007750  -0.002048 -32.524800   5.517040  -8.573820 -26.949800  -0.002565  -0.004779 -18.864900   0.003286  -0.004079 -28.586800  -1.903930   3.489320 -38.034800  -0.002623  -0.004152 -25.331200  -0.004486  -0.001948 -28.505100  -1.898740   3.492140 -36.834300  -0.004699  -0.005226 -24.531700  -0.008688  -0.004365 -33.591200  -2.201340   3.309880 -50.482200  -0.011551  -0.004096 -33.621200   0.002874  -0.004070   3.769590  -0.423344   1.450550  74.764400   3.029530  -7.407010   0.371149  -5.560820   8.113810 -12.501000  -3.738130   2.745970 -36.603800  29.662600  61.021300  33.028100  -0.001496  -0.005224  11.514000   0.001815   0.001508  35.076000   9.225460  12.854900  29.550300   0.004712   0.002451  20.685200   0.001396  -0.008235  32.151900   3.268780   5.183390  48.449800  -0.000933   0.001662  32.267500   0.002344   0.005369  30.983300   3.160570   5.248970  46.691100  -0.000619   0.010852  31.096300   0.001160   0.005531  40.628600  -1.258870  -1.467110  60.966900   0.007408   0.005045  40.604000   0.003862   0.006100   2.272600   8.686480   2.564310   1.438970  -0.001436   3.339740  -1.702360  -2.638270   0.795612   0.000000   0.000000   0.000000   2.604450   7.088700  -1.001830   0.022960   1.961750  -5.360770  -0.686617  -3.599640  -1.047990   0.000000   0.000000   0.000000
 -0.154247  89.582100  -1.253660  -2.036560  -6.648190  -1.045480   0.647572   2.535220  -0.017841   1.297880   5.070100  -0.064502   0.191284   0.773061   0.004548   0.312949   1.567530  -1.181800  -0.630315   0.245038   1.497610 -79.547900  13.073600   1.826340  -0.905628  -3.709420 -14.460600  12.321700  -3.850360  -0.619287  37.400700  33.267000 -62.813400 -34.989900   0.000000   0.000165 -12.494100  -0.007757  -0.002042 -32.525200   5.512970  -8.567100 -26.949300  -0.002539  -0.004757 -18.864600   0.003282  -0.004059 -28.586300  -1.908290   3.497250 -38.032100  -0.002623  -0.004153 -25.329400  -0.004500  -0.001942 -28.504600  -1.903080   3.500080 -36.830400  -0.004677  -0.005205 -24.529000  -0.008698  -0.004349 -33.588900  -2.206320   3.317450 -50.479300  -0.011536  -0.004088 -33.619300   0.002851  -0.004040   3.760600  -0.434044   1.462300  74.765200   3.029410  -7.423180   0.387459  -5.565280   8.093990 -12.504300  -3.745220   2.737230 -36.579100  29.635400  61.039000  33.041700  -0.001495  -0.005230  11.520800   0.001815   0.001509  35.092500   9.231330  12.859500  29.565500   0.004714   0.002453  20.695900   0.001384  -0.008238  32.163400   3.272160   5.187000  48.467300  -0.000938   0.001654  32.279200   0.002342   0.005362  30.982700   3.163850   5.253090  46.691100  -0.000620   0.010852  31.096300   0.001154   0.005521  40.631300  -1.258970  -1.467210  60.971000   0.007397   0.005043  40.606700   0.003844   0.006106   2.278230   8.715010   2.566380   1.438640  -0.014036   3.339970  -1.701170  -2.633740   0.788245  -0.000000   0.000000   0.000000   2.616590   7.110620  -1.001840   0.017836   1.960600  -5.375250  -0.686246  -3.599240  -1.040550  -0.000000   0.000000   0.000000
 -0.154224  89.582100  -1.256560  -2.042260  -6.670200  -1.034940   0.650871   2.555210  -0.023245   1.304730   5.110030  -0.075691   0.179160   0.756015   0.004511   0.294370   1.533140  -1.166600  -0.638058   0.242064   1.497660 -79.535700  13.104900   1.803890  -0.910683  -3.723330 -14.478200  12.343800  -3.858330  -0.626788  37.409400  33.295200 -62.837000 -34.998300   0.000000   0.000192 -12.499200  -0.007774  -0.002036 -32.521600   5.509050  -8.562660 -26.946300  -0.002503  -0.004727 -18.862400   0.003277  -0.004033 -28.585800  -1.912240   3.504670 -38.026100  -0.002623  -0.004154 -25.325400  -0.004519  -0.001933 -28.504100  -1.907000   3.507520 -36.822100  -0.004649  -0.005178 -24.523500  -0.008711  -0.004328 -33.585200  -2.210670   3.324640 -50.474100  -0.011515  -0.004076 -33.615800   0.002821  -0.004001   3.752490  -0.449101   1.474320  74.766000   3.029230  -7.438640   0.405695  -5.573370   8.078130 -12.505000  -3.748320   2.730680 -36.552600  29.612700  61.063600  33.048700  -0.001494  -0.005239  11.524300   0.001816   0.001510  35.104000   9.242240  12.870500  29.576200   0.004716   0.002454  20.703300   0.001367  -0.008242  32.170300   3.278990   5.195780  48.478700  -0.000948   0.001643  32.286800   0.002338   0.005352  30.981300   3.170330   5.262670  46.690500  -0.000622   0.010851  31.095900   0.001146   0.005509  40.632300  -1.259080  -1.467320  60.972600   0.007382   0.005039  40.607700   0.003821   0.006114   2.283430   8.738890   2.568280   1.438300  -0.026637   3.340110  -1.699550  -2.629210   0.779778  -0.000000   0.000000   0.000000   2.628100   7.132880  -1.001640   0.013550   1.959330  -5.393140  -0.685861  -3.598850  -1.032880  -0.000000   0.000000   0.000000
